<svg width="429" height="265" viewBox="0 0 429 265" fill="none" xmlns="http://www.w3.org/2000/svg">
<g opacity="0.05">
<path d="M277.146 258.702C279.13 260.148 279.13 260.147 279.13 260.147L279.131 260.145L279.134 260.141L279.145 260.126L279.183 260.073C279.216 260.028 279.264 259.961 279.326 259.874C279.45 259.699 279.631 259.443 279.864 259.108C280.329 258.438 281 257.453 281.837 256.18C283.508 253.633 285.84 249.928 288.495 245.276C293.801 235.977 300.417 222.859 305.638 207.598L306.444 205.242L304.077 204.469C291.508 200.365 277.088 194.414 263.443 185.936L261.125 184.495L259.937 186.953C251.918 203.551 241.296 217.85 232.035 228.559L230.411 230.435L232.305 232.038C243.455 241.475 254.386 248.686 262.528 253.538C266.601 255.966 269.982 257.806 272.351 259.043C273.536 259.661 274.468 260.129 275.108 260.443C275.427 260.601 275.674 260.72 275.843 260.801C275.927 260.841 275.992 260.872 276.036 260.893L276.088 260.917L276.103 260.924L276.107 260.926L276.108 260.927C276.109 260.927 276.109 260.927 277.146 258.702ZM277.146 258.702L279.13 260.148L277.94 261.78L276.109 260.927L277.146 258.702Z" fill="#EA7C87" stroke="#FCEEEA" stroke-width="4.9097" stroke-miterlimit="22.9256"/>
<path d="M141.743 250.734C142.725 252.984 142.726 252.984 142.726 252.983L142.728 252.983L142.732 252.981L142.747 252.974L142.8 252.951C142.846 252.931 142.912 252.901 142.998 252.863C143.17 252.785 143.423 252.671 143.75 252.52C144.404 252.217 145.358 251.767 146.57 251.171C148.994 249.979 152.455 248.202 156.626 245.848C164.965 241.143 176.168 234.121 187.619 224.855L189.53 223.308L187.981 221.4C180.625 212.336 172.969 201.423 166.686 189.179L165.482 186.833L163.229 188.201L161.916 188.997C161.914 188.998 161.912 189 161.909 189.001C161.323 189.352 160.734 189.698 160.141 190.045C160.14 190.045 160.139 190.046 160.137 190.047L159.708 190.296C159.707 190.296 159.706 190.297 159.705 190.297C159.062 190.669 158.412 191.037 157.759 191.404C157.758 191.405 157.757 191.405 157.756 191.406L157.236 191.696C157.235 191.697 157.233 191.697 157.232 191.698C156.623 192.035 156.021 192.366 155.422 192.688L155.409 192.695L155.395 192.703L155.24 192.789L155.234 192.792L155.221 192.799L154.978 192.929L154.976 192.93C154.394 193.241 153.809 193.548 153.22 193.856C153.218 193.857 153.217 193.858 153.216 193.858L152.687 194.132C152.686 194.133 152.685 194.133 152.685 194.134C152.058 194.458 151.435 194.775 150.815 195.084L150.813 195.085L150.204 195.39C150.203 195.39 150.203 195.39 150.202 195.391C149.643 195.668 149.085 195.943 148.53 196.211L148.523 196.215L148.516 196.218L148.235 196.356L148.224 196.361L148.221 196.363L147.912 196.509L147.911 196.509L146.356 197.246L146.348 197.25L145.642 197.581L143.895 198.378L143.096 198.735L143.09 198.738L141.881 199.274L140.621 199.819L140.608 199.825L139.589 200.259L139.578 200.263L138.485 200.723L138.481 200.724L138.456 200.735L138.443 200.74L137.081 201.301L137.067 201.306L136.038 201.722L136.025 201.727L135.279 202.023L135.274 202.026L134.361 202.386L134.346 202.392L133.007 202.909L132.865 202.963L132.862 202.965L131.826 203.358L131.825 203.359L131.664 203.42L130.339 203.913L129.476 204.227L129.474 204.228L128.592 204.548C128.59 204.548 128.589 204.549 128.588 204.549C126.575 205.27 124.606 205.944 122.689 206.571C122.688 206.571 122.686 206.572 122.685 206.572L122.553 206.614L122.546 206.617L122.539 206.619C121.735 206.884 120.937 207.138 120.144 207.388L117.658 208.173L118.59 210.607C123.296 222.897 128.567 233.258 132.663 240.549C134.711 244.196 136.468 247.079 137.717 249.056C138.341 250.045 138.839 250.807 139.183 251.325C139.354 251.584 139.488 251.783 139.579 251.918C139.625 251.985 139.66 252.037 139.685 252.072L139.713 252.114L139.721 252.125L139.723 252.129L139.724 252.13C139.724 252.13 139.725 252.131 141.743 250.734ZM141.743 250.734L139.725 252.131L140.874 253.792L142.725 252.984L141.743 250.734Z" fill="#EA7C87" stroke="#FCEEEA" stroke-width="4.9097" stroke-miterlimit="22.9256"/>
<path d="M91.2734 216.839C91.6087 219.271 91.6093 219.271 91.6101 219.271L91.6124 219.271L91.6197 219.27L91.6448 219.266L91.7365 219.253C91.8159 219.241 91.9318 219.224 92.0829 219.201C92.3849 219.156 92.8276 219.086 93.4005 218.991C94.5463 218.8 96.2133 218.505 98.3186 218.085C102.528 217.244 108.496 215.901 115.554 213.89C129.657 209.871 148.192 203.16 165.79 192.391L167.733 191.203L166.693 189.176C158.671 173.551 152.92 155.844 152.808 137.101C152.771 130.93 153.357 124.863 154.427 118.935L155.486 113.065L150.602 116.488C144.411 120.828 139.117 124.212 135.124 126.154L135.123 126.155C118.262 134.367 99.8386 137.115 82.268 136.921L79.9955 136.896L79.7956 139.16C77.9786 159.735 80.2707 179.34 83.0021 193.772C84.3693 200.996 85.8501 206.942 86.9916 211.09C87.5624 213.164 88.0487 214.79 88.3939 215.902C88.5666 216.458 88.704 216.886 88.799 217.177C88.8466 217.322 88.8836 217.434 88.9091 217.51L88.9387 217.598L88.9469 217.623L88.9492 217.629L88.95 217.632C88.9503 217.632 88.9505 217.633 91.2734 216.839ZM91.2734 216.839L91.6087 219.271L89.6047 219.547L88.9505 217.633L91.2734 216.839Z" fill="#EA7C87" stroke="#FCEEEA" stroke-width="4.9097" stroke-miterlimit="22.9256"/>
<path d="M338.593 215.214C340.927 215.974 340.927 215.974 340.927 215.973L340.928 215.971L340.93 215.964L340.938 215.94L340.966 215.851C340.991 215.775 341.026 215.663 341.071 215.517C341.162 215.225 341.293 214.797 341.457 214.24C341.785 213.126 342.247 211.498 342.787 209.421C343.866 205.267 345.259 199.315 346.521 192.09C349.043 177.655 351.058 158.063 348.974 137.554L348.744 135.295L346.474 135.348C328.888 135.759 310.409 133.234 293.428 125.214L293.427 125.213C286.348 121.872 279.849 117.725 273.884 113.021L268.49 108.766L269.966 115.476C271.46 122.262 272.328 129.249 272.37 136.388C272.478 154.468 267.331 171.645 259.938 186.949L258.978 188.936L260.853 190.102C278.972 201.361 298.325 208.239 313.109 212.302C320.509 214.336 326.785 215.671 331.219 216.498C333.436 216.911 335.194 217.198 336.403 217.382C337.007 217.474 337.474 217.541 337.793 217.585C337.952 217.606 338.075 217.623 338.158 217.633L338.255 217.646L338.281 217.649L338.289 217.65L338.291 217.65C338.292 217.651 338.293 217.651 338.593 215.214ZM338.593 215.214L340.927 215.974L340.3 217.898L338.293 217.651L338.593 215.214Z" fill="#EA7C87" stroke="#FCEEEA" stroke-width="4.9097" stroke-miterlimit="22.9256"/>
<path d="M5.85631 122.83C4.84406 125.067 4.84501 125.067 4.84621 125.068L4.85007 125.07L4.86278 125.075L4.90821 125.096C4.94733 125.113 5.00411 125.138 5.07816 125.171C5.22628 125.236 5.44359 125.331 5.72732 125.453C6.29476 125.696 7.12807 126.047 8.20521 126.481C10.3593 127.35 13.4899 128.556 17.4208 129.912C25.2793 132.625 36.3549 135.95 49.2338 138.4C74.9231 143.289 108.132 144.765 137.271 130.571C143.035 127.767 148.403 124.457 153.406 120.784L154.199 120.202L154.37 119.234C159.099 92.5874 173.812 68.8955 187.478 51.7783C194.296 43.2387 200.816 36.3812 205.628 31.6622C208.033 29.3036 210.009 27.4816 211.379 26.2533C212.064 25.6392 212.597 25.1736 212.956 24.8638C213.136 24.7089 213.272 24.5929 213.362 24.5168C213.407 24.4788 213.44 24.4507 213.462 24.4326L213.485 24.4132L213.49 24.4091L213.49 24.4089L213.49 24.4085L216.504 21.9017L212.932 20.285L211.92 22.5215C212.932 20.285 212.932 20.2846 212.93 20.2841L212.926 20.2823L212.914 20.2766L212.868 20.2562C212.829 20.2388 212.772 20.2135 212.698 20.1808C212.55 20.1155 212.333 20.0206 212.049 19.8989C211.482 19.6555 210.649 19.305 209.571 18.8705C207.417 18.0017 204.287 16.7964 200.356 15.4394C192.498 12.7267 181.422 9.40144 168.544 6.94958C143.003 2.08718 110.029 0.594885 81.0112 14.5156L81.0053 14.5156L80.5035 14.76C51.3516 28.9545 32.1091 55.9697 20.1913 79.1689C14.2167 90.7992 10.043 101.548 7.36159 109.392C6.02031 113.316 5.05085 116.517 4.41511 118.744C4.09719 119.858 3.86262 120.728 3.70665 121.324C3.62866 121.622 3.5703 121.851 3.531 122.008C3.51134 122.086 3.49645 122.146 3.48624 122.188L3.47443 122.236L3.47115 122.25L3.47016 122.254C3.46984 122.255 3.46961 122.256 5.85631 122.83ZM5.85631 122.83L4.84406 125.067L2.99457 124.23L3.46961 122.256L5.85631 122.83Z" fill="#EA7C87" stroke="#FCEEEA" stroke-width="4.9097" stroke-miterlimit="22.9256"/>
<path d="M215.411 22.5007L214.372 20.2765L212.531 21.1364L213.032 23.1058L215.411 22.5007ZM215.411 22.5007C213.032 23.1058 213.032 23.1059 213.032 23.106L213.032 23.1062L213.032 23.1068L213.033 23.1084L213.034 23.1132L213.038 23.1292L213.053 23.187C213.066 23.2368 213.085 23.3091 213.11 23.4034C213.16 23.5918 213.234 23.8677 213.334 24.2256C213.532 24.9414 213.831 25.9853 214.234 27.3136L214.43 27.9588L214.928 28.4133C227.355 39.7541 260.731 73.4797 269.969 115.476L270.157 116.333L270.846 116.876C277.07 121.784 283.884 126.138 291.334 129.654C320.644 143.5 353.834 141.629 379.464 136.435C392.314 133.831 403.349 130.375 411.175 127.569C415.09 126.165 418.206 124.923 420.349 124.028C421.421 123.581 422.25 123.221 422.815 122.971C423.097 122.845 423.313 122.748 423.46 122.681C423.534 122.647 423.591 122.621 423.629 122.603L423.675 122.582L423.687 122.577L423.691 122.575C423.692 122.574 423.693 122.574 422.655 120.35M215.411 22.5007C214.372 20.2765 214.373 20.276 214.374 20.2755L214.378 20.2737L214.391 20.2678L214.436 20.2469C214.475 20.229 214.531 20.203 214.605 20.1695C214.752 20.1024 214.969 20.0049 215.251 19.8798C215.815 19.6297 216.644 19.2693 217.716 18.8221C219.859 17.9277 222.975 16.6852 226.889 15.2815C234.714 12.4755 245.749 9.01855 258.597 6.41356C284.077 1.24748 317.031 -0.637185 346.216 12.9371L346.221 12.9371L346.726 13.1754C376.045 27.0219 395.608 53.8061 407.801 76.8619C413.913 88.4202 418.215 99.1189 420.989 106.93C422.377 110.838 423.385 114.027 424.047 116.247C424.378 117.357 424.623 118.224 424.786 118.818C424.868 119.115 424.929 119.343 424.97 119.499C424.99 119.577 425.006 119.637 425.017 119.679L425.029 119.727L425.033 119.74L425.034 119.745C425.034 119.746 425.034 119.747 422.655 120.35M422.655 120.35L423.693 122.574L425.533 121.715L425.034 119.747L422.655 120.35Z" fill="#EA7C87" stroke="#FCEEEA" stroke-width="4.9097" stroke-miterlimit="22.9256"/>
<path d="M211.938 25.2158L213.434 23.2697L211.919 22.105L210.418 23.2874L211.938 25.2158ZM211.938 25.2158C213.434 23.2697 213.435 23.2704 213.436 23.2712L213.439 23.2738L213.45 23.2822L213.489 23.3123C213.522 23.3382 213.57 23.3757 213.633 23.4248C213.758 23.5229 213.94 23.6671 214.176 23.8564C214.648 24.235 215.334 24.794 216.204 25.5255C217.944 26.9882 220.421 29.1414 223.389 31.9205C229.323 37.4761 237.239 45.5473 245.17 55.6182C260.993 75.7092 277.089 104.026 277.282 136.359C277.474 168.681 261.73 197.86 246.165 218.804C238.362 229.305 230.551 237.807 224.689 243.687C221.757 246.628 219.309 248.916 217.589 250.473C216.729 251.252 216.05 251.848 215.584 252.252C215.351 252.454 215.171 252.608 215.048 252.712C214.986 252.765 214.938 252.805 214.906 252.832L214.867 252.864L214.857 252.873L214.854 252.876C214.852 252.877 214.852 252.877 213.281 250.991M211.938 25.2158C210.418 23.2874 210.418 23.2881 210.417 23.2889L210.413 23.2915L210.402 23.3001L210.364 23.3307C210.331 23.3569 210.283 23.395 210.221 23.4448C210.098 23.5444 209.917 23.6908 209.683 23.8829C209.216 24.267 208.536 24.8342 207.674 25.576C205.951 27.0593 203.5 29.2418 200.564 32.0561C194.694 37.682 186.873 45.8468 179.059 56.0113C163.471 76.2893 147.707 104.796 147.9 137.129C148.092 169.451 164.188 198.441 180.006 219.198C187.937 229.605 195.851 238.014 201.785 243.823C204.753 246.729 207.228 248.988 208.967 250.525C209.837 251.293 210.523 251.881 210.994 252.279C211.23 252.479 211.412 252.63 211.536 252.734C211.599 252.785 211.646 252.825 211.68 252.852L211.718 252.883L211.729 252.892L211.732 252.895C211.733 252.896 211.734 252.896 213.281 250.991M213.281 250.991L214.852 252.877L213.301 254.168L211.734 252.896L213.281 250.991Z" fill="#EA7C87" stroke="#FCEEEA" stroke-width="4.9097" stroke-miterlimit="22.9256"/>
</g>
</svg>
