<svg width="247" height="252" viewBox="0 0 247 252" fill="none" xmlns="http://www.w3.org/2000/svg">
<path d="M184.17 57.0152C191.624 54.4701 197.092 50.7759 196.41 48.7211C195.729 46.6663 189.157 47.027 181.683 49.5118C186.877 43.5505 189.779 37.596 188.169 36.1598C186.56 34.7237 181.047 38.3487 175.807 44.2675C177.348 36.4881 176.907 29.868 174.801 29.4358C172.695 29.0036 169.719 34.9213 168.117 42.6884C165.592 35.1748 161.927 29.6636 159.889 30.3504C157.85 31.0372 158.209 37.6618 160.673 45.1955C154.759 39.9601 148.852 37.0353 147.427 38.658C146.002 40.2795 149.599 45.8365 155.47 51.1188C147.753 49.5654 141.185 50.0098 140.756 52.1328C140.328 54.2557 146.198 57.2553 153.904 58.8702C146.45 61.4153 140.982 65.1095 141.664 67.1643C142.345 69.2192 148.917 68.8573 156.392 66.3726C151.198 72.3338 148.297 78.2883 149.907 79.7245C151.515 81.1606 157.028 77.5357 162.268 71.6168C160.727 79.3962 161.168 86.0163 163.274 86.4485C165.38 86.8807 168.356 80.963 169.958 73.1959C172.483 80.7095 176.148 86.2207 178.187 85.5339C180.225 84.8471 179.866 78.2225 177.402 70.6888C183.316 75.9242 189.223 78.849 190.648 77.2263C192.073 75.6048 188.477 70.0478 182.605 64.7655C190.323 66.3189 196.89 65.8745 197.319 63.7515C197.747 61.6297 191.876 58.6301 184.17 57.0152Z" fill="#F1AD9C"/>
<path d="M174.129 57.6306C174.3 60.4661 172.159 62.904 169.346 63.0759C166.534 63.2479 164.115 61.0903 163.944 58.2549C163.773 55.4194 165.914 52.9816 168.727 52.8096C171.54 52.6365 173.958 54.7952 174.129 57.6306Z" fill="white"/>
<path d="M43.602 100.905C51.0559 98.3599 56.5234 94.6656 55.842 92.6108C55.1607 90.556 48.5887 90.9167 41.1148 93.4015C46.3086 87.4402 49.2102 81.4857 47.6004 80.0495C45.9906 78.6134 40.4789 82.2384 35.2385 88.1572C36.7796 80.3778 36.3387 73.7577 34.2326 73.3255C32.1265 72.8933 29.1507 78.811 27.5486 86.5781C25.0238 79.0634 21.3588 73.5533 19.3203 74.2402C17.2818 74.927 17.6407 81.5516 20.1047 89.0852C14.1907 83.8498 8.28348 80.9251 6.85873 82.5477C5.43398 84.1704 9.03019 89.7262 14.902 95.0085C7.18444 93.4551 0.61684 93.8995 0.188085 96.0225C-0.24067 98.1454 5.62896 101.145 13.3355 102.76C5.88156 105.305 0.414096 108.999 1.09545 111.054C1.77681 113.109 8.34884 112.747 15.8238 110.263C10.63 116.225 7.72841 122.179 9.33818 123.615C10.9468 125.051 16.4597 121.426 21.7001 115.508C20.159 123.288 20.5999 129.907 22.706 130.339C24.8121 130.772 27.7879 124.854 29.39 117.087C31.9148 124.6 35.5798 130.111 37.6183 129.425C39.6568 128.738 39.2979 122.113 36.8328 114.58C42.7467 119.815 48.654 122.74 50.0788 121.117C51.5035 119.496 47.9073 113.939 42.0355 108.656C49.753 110.21 56.3206 109.765 56.7494 107.642C57.1782 105.521 51.3074 102.521 43.602 100.905Z" fill="#F1AD9C"/>
<path d="M33.5616 101.521C33.7322 104.357 31.5918 106.795 28.7788 106.967C25.9659 107.139 23.5473 104.981 23.3767 102.146C23.2061 99.3101 25.3466 96.8723 28.1595 96.7003C30.9725 96.5272 33.391 98.6859 33.5616 101.521Z" fill="white"/>
<path d="M211.305 219.613C218.76 217.068 224.227 213.374 223.545 211.319C222.864 209.264 216.292 209.626 208.818 212.109C214.012 206.148 216.913 200.194 215.304 198.758C213.695 197.321 208.182 200.946 202.942 206.865C204.483 199.086 204.042 192.466 201.936 192.034C199.83 191.601 196.854 197.519 195.252 205.286C192.727 197.771 189.062 192.261 187.023 192.948C184.985 193.635 185.344 200.26 187.808 207.793C181.894 202.558 175.987 199.633 174.562 201.256C173.137 202.877 176.733 208.434 182.605 213.716C174.888 212.163 168.32 212.608 167.891 214.73C167.462 216.853 173.333 219.853 181.039 221.468C173.585 224.013 168.117 227.707 168.799 229.762C169.48 231.817 176.052 231.455 183.527 228.97C178.333 234.932 175.432 240.886 177.041 242.322C178.65 243.758 184.163 240.133 189.403 234.215C187.862 241.994 188.303 248.614 190.409 249.046C192.515 249.478 195.491 243.561 197.093 235.794C199.618 243.307 203.283 248.818 205.321 248.132C207.36 247.445 207.001 240.82 204.537 233.287C210.451 238.522 216.358 241.447 217.783 239.824C219.208 238.202 215.612 232.646 209.74 227.363C217.457 228.917 224.025 228.472 224.454 226.349C224.881 224.227 219.011 221.229 211.305 219.613Z" fill="#F1AD9C"/>
<path d="M201.264 220.228C201.434 223.064 199.294 225.501 196.481 225.673C193.669 225.845 191.249 223.688 191.079 220.852C190.908 218.017 193.049 215.579 195.862 215.407C198.675 215.235 201.093 217.394 201.264 220.228Z" fill="white"/>
<path d="M222.967 83.8342C212.788 76.496 198.899 79.0355 186.522 77.1783C174.929 75.4384 164.244 69.6034 155.104 62.2082C145.963 54.813 138.198 45.8667 130.484 36.9717C124.883 30.5113 119.281 24.052 113.68 17.5916L30.7574 41.8073C31.9107 50.9055 37.6663 58.6089 42.6363 66.2922C47.6063 73.9755 52.1132 82.9542 50.3406 91.9508C47.4036 106.849 29.3637 113.739 23.2027 127.602C19.4591 136.027 20.7155 146.025 24.469 154.446C28.2215 162.866 34.2351 170.022 40.1978 177.028L213.849 140.631L209.589 126.993L224.562 135.169C229.191 126.999 233.061 118.105 233.534 108.708C234.005 99.3113 230.559 89.3074 222.967 83.8342Z" fill="#221F1F"/>
<path d="M120.773 29.4973C135.378 45.0492 150.679 61.1573 170.963 68.9501C175.718 70.7771 180.664 72.0781 185.715 72.7236C191.502 73.4629 197.342 73.2228 203.157 73.0798C213.26 72.8308 224.472 72.9737 232.93 79.3839C241.824 86.1235 243.855 98.0259 245.488 108.407C245.627 109.292 246.961 108.917 246.823 108.037C245.397 98.9718 243.73 89.2047 237.657 81.9815C231.388 74.5238 221.444 72.1015 212.138 71.6928C206.151 71.4293 200.164 71.8815 194.176 71.8402C188.556 71.8011 183.024 71.1691 177.596 69.6737C167.408 66.8684 158.03 61.5605 149.651 55.157C139.416 47.3352 130.557 37.8875 121.753 28.5123C121.139 27.8568 120.161 28.8451 120.773 29.4973Z" fill="#221F1F"/>
<path d="M51.275 8.84513C42.3376 6.53791 32.3865 9.46381 26.4028 16.6356C20.5376 23.6656 18.8591 33.5366 22.3778 42.0452C24.3033 46.7021 27.5738 50.6733 31.7561 53.4395C32.5028 53.9342 33.1975 52.7259 32.4552 52.2345C25.4444 47.5955 21.2444 39.2165 21.969 30.7581C22.7157 22.0329 28.4524 14.1497 36.5943 11.0284C41.1666 9.27508 46.1687 8.96797 50.9072 10.1919C51.7702 10.4142 52.1391 9.06736 51.275 8.84513Z" fill="#221F1F"/>
<path d="M36.099 54.1106C42.6633 62.6258 47.9479 73.0284 47.6987 84.0687C47.4848 93.5667 42.9591 103.315 34.394 107.879C29.876 110.287 24.7996 111.329 20.1719 113.484C16.1204 115.37 12.7324 118.224 10.5454 122.179C6.48834 129.518 6.75977 139.003 10.8501 146.26C16.0428 155.472 26.1568 160.896 36.3073 162.429C37.1792 162.561 37.5548 161.216 36.6751 161.084C27.2602 159.662 17.8908 154.909 12.6815 146.623C8.02611 139.216 7.65275 129.047 12.4998 121.622C18.2531 112.807 29.65 113.189 37.6002 107.542C44.8625 102.383 48.6969 93.4606 49.0636 84.6784C49.55 73.0441 43.9795 62.0775 37.0762 53.1245C36.5322 52.4153 35.5584 53.4092 36.099 54.1106Z" fill="#221F1F"/>
<path d="M77.5015 109.169L122.564 99.7223C122.564 99.7223 169.176 104.349 174.772 109.326C180.368 114.304 160.619 223.133 160.619 223.133H55.6162V134.695L77.5015 109.169Z" fill="#F6CBC0"/>
<path d="M103.211 83.6164C105.87 84.7387 108.996 83.5136 111.167 81.6018C113.339 79.6899 114.875 77.1615 116.824 75.0207C119.351 72.2456 122.562 70.1304 124.852 67.1543C129.66 60.9015 129.493 52.087 127.644 44.3992C123.852 28.6329 113.728 14.5126 100.068 5.93365C93.955 2.09424 86.8168 -0.715518 79.6665 0.161136C72.299 1.06459 65.9319 5.71253 58.7971 7.77183C52.1353 9.69489 44.9207 9.32748 38.4296 11.7743C32.119 14.153 26.8 19.3269 24.6585 25.765C22.5169 32.2042 23.7766 39.7915 28.2314 44.8861C32.8314 50.1449 39.9707 52.2545 46.7942 53.6158C53.6177 54.976 60.7548 55.9175 66.6543 59.6307C72.3755 63.2322 76.3007 69.0483 81.1201 73.8057C85.9394 78.563 92.671 82.4784 99.1843 80.7083" fill="#221F1F"/>
<path d="M85.0449 90.3303C85.4116 91.1623 92.0645 121.713 92.0645 121.713L130.455 104.514L113.522 66.11L85.0449 90.3303Z" fill="#F6CBC0"/>
<path d="M86.5275 100.619C86.5275 100.619 64.024 106.769 53.6053 83.2099C50.0424 75.1547 46.3476 66.5881 41.3266 50.8842C35.9278 34 44.9992 21.9658 62.2658 14.6522L63.9819 13.9252C82.908 7.11182 98.8329 11.9652 104.52 30.1215L109.81 47.697C109.81 47.697 127.349 83.3897 86.5596 100.634" fill="#F6CBC0"/>
<path d="M83.3716 46.5758C80.0423 46.033 76.5159 47.324 74.4231 50.0243C74.1927 50.3214 74.1362 50.7223 74.4231 51.0115C74.6624 51.2527 75.1709 51.3097 75.4025 51.0115C77.1729 48.7277 80.1376 47.4546 83.0037 47.9214C83.3727 47.9817 83.7494 47.8254 83.8557 47.4345C83.9455 47.1006 83.7427 46.6361 83.3716 46.5758Z" fill="#221F1F"/>
<path d="M58.0835 56.6109C54.7543 56.0682 51.2278 57.3591 49.135 60.0595C48.9046 60.3565 48.8481 60.7574 49.135 61.0467C49.3743 61.2879 49.8829 61.346 50.1144 61.0467C51.8848 58.7618 54.8495 57.4887 57.7157 57.9566C58.0846 58.0169 58.4612 57.8606 58.5676 57.4686C58.6585 57.1369 58.4546 56.6712 58.0835 56.6109Z" fill="#221F1F"/>
<path d="M53.0589 49.0237C50.6869 49.6022 48.4168 50.6084 46.3916 51.982" stroke="#221F1F" stroke-width="2.86823" stroke-miterlimit="10" stroke-linecap="round" stroke-linejoin="round"/>
<path d="M77.29 39.3538C75.021 40.1132 72.7919 41.1908 70.7412 42.5187" stroke="#221F1F" stroke-width="2.86823" stroke-miterlimit="10" stroke-linecap="round" stroke-linejoin="round"/>
<path d="M108.057 50.003C99.7514 55.3847 90.0042 39.175 71.1955 38.5328C61.0483 38.1855 48.7917 29.0471 42.8301 20.4738C42.8301 20.4738 58.222 -0.0567038 80.0254 4.28078C101.829 8.61938 112.314 29.6289 112.314 29.6289L108.057 50.003Z" fill="#221F1F"/>
<path d="M104.302 47.7439C106.376 45.0068 109.421 42.8045 112.829 42.8928C116.321 42.9832 119.649 45.6612 120.88 49.1265C122.111 52.5918 121.299 56.6166 119.042 59.3068C116.787 61.9971 113.225 63.345 109.734 63.0893L104.302 47.7439Z" fill="#F6CBC0"/>
<path d="M112.032 49.381C112.853 48.6719 114.142 48.6607 115.061 49.2381C115.978 49.8154 116.525 50.8886 116.615 51.9753C116.706 53.0619 116.379 54.1529 115.852 55.1055C115.399 55.9252 114.752 56.6913 113.874 57.0051C112.818 57.3826 111.568 56.9973 110.819 56.1586C110.07 55.3188 109.815 54.0915 110.058 52.9893C110.3 51.887 111.004 50.9166 111.907 50.2487" fill="#F4B8BE"/>
<path d="M110.53 54.2992C110.355 53.331 110.62 52.2712 111.055 51.4035C111.579 50.3571 112.408 49.4603 113.482 48.9823C114.146 48.6853 114.87 48.5892 115.591 48.6305C116.125 48.6618 116.124 47.8231 115.591 47.793C114.14 47.7092 112.745 48.2095 111.671 49.1967C110.721 50.07 110.045 51.2873 109.778 52.5537C109.64 53.2048 109.611 53.8659 109.729 54.5226C109.824 55.0519 110.625 54.8274 110.53 54.2992Z" fill="#F1AD9C"/>
<path d="M86.3398 100.696C90.8013 98.6468 96.3297 94.8755 99.0695 88.5044C99.0695 88.5044 99.8562 101.028 88.7285 106.116L86.3398 100.696Z" fill="#F1AD9C"/>
<path d="M64.8914 56.6032C65.8674 58.8233 66.8357 61.0579 67.6079 63.3595C67.9835 64.4796 68.3591 65.6533 68.4377 66.8416C68.5574 68.6384 67.7309 70.3303 67.6201 72.154C67.5403 73.4517 68.0743 74.5863 69.1745 75.2798C70.4696 76.095 72.034 75.9834 73.4853 75.8203C74.3616 75.722 74.3716 74.325 73.4853 74.4244C71.8811 74.6042 69.0371 74.8085 68.9917 72.4745C68.9773 71.7017 69.1856 70.8943 69.365 70.1427C69.5755 69.2616 69.8115 68.3883 69.8359 67.4759C69.8713 66.1682 69.5334 64.8616 69.149 63.6242C68.3258 60.9797 67.198 58.4279 66.0857 55.8985C65.7267 55.0788 64.5335 55.7879 64.8914 56.6032Z" fill="#221F1F"/>
<path d="M86.1505 71.8692C84.7933 71.8524 83.3863 71.8524 82.1477 72.4153C80.9102 72.977 79.8876 74.2658 80.0737 75.6215C80.2067 76.5931 80.9013 77.3759 81.5638 78.0929C82.0358 78.6043 82.541 79.1359 83.2035 79.3403C84.2826 79.672 85.4581 79.0008 86.1128 78.0739C87.2263 76.497 87.1144 74.1552 85.8536 72.6945" fill="#F1AD9C"/>
<path d="M86.1318 70.0713C85.9867 73.2485 83.9216 76.3017 80.9979 77.5357C80.6533 77.6809 80.4062 77.998 80.5137 78.3945C80.6034 78.7217 81.0189 79.0288 81.3657 78.8814C84.8877 77.395 87.3405 73.9308 87.5167 70.0713C87.5577 69.1734 86.1728 69.1745 86.1318 70.0713Z" fill="#221F1F"/>
<path d="M94.6791 62.0473C95.8025 64.5947 94.6636 67.5775 92.1365 68.7099C89.6093 69.8423 86.6502 68.6943 85.5268 66.147C84.4034 63.5996 85.5411 60.6168 88.0694 59.4844C90.5965 58.352 93.5556 59.5 94.6791 62.0473Z" fill="#F4B8BE"/>
<path d="M64.2025 24.8771C71.4448 33.675 83.4976 35.4662 94.1533 36.2346C100.575 36.6969 107.081 36.9839 113.332 38.6635C119.588 40.3442 124.869 43.6163 129.133 48.5301C133.259 53.2841 136.38 58.8199 140.021 63.938C143.606 68.9768 147.522 73.7833 151.814 78.2269C160.422 87.1375 170.622 94.6242 182.165 99.1593C195.542 104.414 210.627 105.669 224.387 101.157C225.231 100.88 224.87 99.5323 224.019 99.8115C211.622 103.877 198.17 103.17 185.884 99.0343C174.014 95.0385 163.462 87.8187 154.564 79.032C150.092 74.6153 146.008 69.8009 142.292 64.7241C138.719 59.8428 135.666 54.5873 131.96 49.8054C128.353 45.1485 124.04 41.2924 118.591 38.9885C113.045 36.6444 107.01 35.8482 101.061 35.3456C88.7102 34.3037 73.8456 34.4154 65.1819 23.8911C64.6124 23.1975 63.6375 24.1903 64.2025 24.8771Z" fill="#655F5F"/>
<path d="M113.296 42.9228C114.977 43.2735 107.208 26.4685 102.01 19.3838C96.8119 12.2991 89.7789 6.35013 81.4465 3.68443C73.114 1.01985 63.4343 1.98138 56.4668 7.30161C66.9165 8.29664 76.4764 14.02 84.0279 21.3683C91.5793 28.7165 98.5601 38.8846 104.299 47.7427C104.299 47.7427 110.31 42.2997 113.296 42.9228Z" fill="#EA7C87"/>
<path d="M103.211 83.6164C105.87 84.7387 108.996 83.5136 111.167 81.6018C113.339 79.6899 114.875 77.1615 116.824 75.0207C119.351 72.2456 122.562 70.1304 124.852 67.1543C129.66 60.9015 129.493 52.087 127.644 44.3992C123.852 28.6329 113.728 14.5126 100.068 5.93365C93.955 2.09424 86.8168 -0.715518 79.6665 0.161136C72.299 1.06459 65.9319 5.71253 58.7971 7.77183C52.1353 9.69489 44.9207 9.32748 38.4296 11.7743C32.119 14.153 26.8 19.3269 24.6585 25.765C22.5169 32.2042 23.7766 39.7915 28.2314 44.8861C32.8314 50.1449 39.9707 52.2545 46.7942 53.6158C53.6177 54.976 60.7548 55.9175 66.6543 59.6307C72.3755 63.2322 76.3007 69.0483 81.1201 73.8057C85.9394 78.563 92.671 82.4784 99.1843 80.7083" fill="#221F1F"/>
<path d="M85.0449 90.3303C85.4116 91.1623 92.0645 121.713 92.0645 121.713L130.455 104.514L113.522 66.11L85.0449 90.3303Z" fill="#F6CBC0"/>
<path d="M86.5275 100.619C86.5275 100.619 64.024 106.769 53.6053 83.2099C50.0424 75.1547 46.3476 66.5881 41.3266 50.8842C35.9278 34 44.9992 21.9658 62.2658 14.6522L63.9819 13.9252C82.908 7.11182 98.8329 11.9652 104.52 30.1215L109.81 47.697C109.81 47.697 127.349 83.3897 86.5596 100.634" fill="#F6CBC0"/>
<path d="M83.3716 46.5758C80.0423 46.033 76.5159 47.324 74.4231 50.0243C74.1927 50.3214 74.1362 50.7223 74.4231 51.0115C74.6624 51.2527 75.1709 51.3097 75.4025 51.0115C77.1729 48.7277 80.1376 47.4546 83.0037 47.9214C83.3727 47.9817 83.7494 47.8254 83.8557 47.4345C83.9455 47.1006 83.7427 46.6361 83.3716 46.5758Z" fill="#221F1F"/>
<path d="M58.0835 56.6109C54.7543 56.0682 51.2278 57.3591 49.135 60.0595C48.9046 60.3565 48.8481 60.7574 49.135 61.0467C49.3743 61.2879 49.8829 61.346 50.1144 61.0467C51.8848 58.7618 54.8495 57.4887 57.7157 57.9566C58.0846 58.0169 58.4612 57.8606 58.5676 57.4686C58.6585 57.1369 58.4546 56.6712 58.0835 56.6109Z" fill="#221F1F"/>
<path d="M53.0589 49.0237C50.6869 49.6022 48.4168 50.6084 46.3916 51.982" stroke="#221F1F" stroke-width="2.86823" stroke-miterlimit="10" stroke-linecap="round" stroke-linejoin="round"/>
<path d="M77.29 39.3538C75.021 40.1132 72.7919 41.1908 70.7412 42.5187" stroke="#221F1F" stroke-width="2.86823" stroke-miterlimit="10" stroke-linecap="round" stroke-linejoin="round"/>
<path d="M108.057 50.003C99.7514 55.3847 90.0042 39.175 71.1955 38.5328C61.0483 38.1855 48.7917 29.0471 42.8301 20.4738C42.8301 20.4738 58.222 -0.0567038 80.0254 4.28078C101.829 8.61938 112.314 29.6289 112.314 29.6289L108.057 50.003Z" fill="#221F1F"/>
<path d="M104.302 47.7439C106.376 45.0068 109.421 42.8045 112.829 42.8928C116.321 42.9832 119.649 45.6612 120.88 49.1265C122.111 52.5918 121.299 56.6166 119.042 59.3068C116.787 61.9971 113.225 63.345 109.734 63.0893L104.302 47.7439Z" fill="#F6CBC0"/>
<path d="M112.032 49.381C112.853 48.6719 114.142 48.6607 115.061 49.2381C115.978 49.8154 116.525 50.8886 116.615 51.9753C116.706 53.0619 116.379 54.1529 115.852 55.1055C115.399 55.9252 114.752 56.6913 113.874 57.0051C112.818 57.3826 111.568 56.9973 110.819 56.1586C110.07 55.3188 109.815 54.0915 110.058 52.9893C110.3 51.887 111.004 50.9166 111.907 50.2487" fill="#F4B8BE"/>
<path d="M110.53 54.2992C110.355 53.331 110.62 52.2712 111.055 51.4035C111.579 50.3571 112.408 49.4603 113.482 48.9823C114.146 48.6853 114.87 48.5892 115.591 48.6305C116.125 48.6618 116.124 47.8231 115.591 47.793C114.14 47.7092 112.745 48.2095 111.671 49.1967C110.721 50.07 110.045 51.2873 109.778 52.5537C109.64 53.2048 109.611 53.8659 109.729 54.5226C109.824 55.0519 110.625 54.8274 110.53 54.2992Z" fill="#F1AD9C"/>
<path d="M86.3398 100.696C90.8013 98.6468 96.3297 94.8755 99.0695 88.5044C99.0695 88.5044 99.8562 101.028 88.7285 106.116L86.3398 100.696Z" fill="#F1AD9C"/>
<path d="M64.8914 56.6032C65.8674 58.8233 66.8357 61.0579 67.6079 63.3595C67.9835 64.4796 68.3591 65.6533 68.4377 66.8416C68.5574 68.6384 67.7309 70.3303 67.6201 72.154C67.5403 73.4517 68.0743 74.5863 69.1745 75.2798C70.4696 76.095 72.034 75.9834 73.4853 75.8203C74.3616 75.722 74.3716 74.325 73.4853 74.4244C71.8811 74.6042 69.0371 74.8085 68.9917 72.4745C68.9773 71.7017 69.1856 70.8943 69.365 70.1427C69.5755 69.2616 69.8115 68.3883 69.8359 67.4759C69.8713 66.1682 69.5334 64.8616 69.149 63.6242C68.3258 60.9797 67.198 58.4279 66.0857 55.8985C65.7267 55.0788 64.5335 55.7879 64.8914 56.6032Z" fill="#221F1F"/>
<path d="M86.1505 71.8692C84.7933 71.8524 83.3863 71.8524 82.1477 72.4153C80.9102 72.977 79.8876 74.2658 80.0737 75.6215C80.2067 76.5931 80.9013 77.3759 81.5638 78.0929C82.0358 78.6043 82.541 79.1359 83.2035 79.3403C84.2826 79.672 85.4581 79.0008 86.1128 78.0739C87.2263 76.497 87.1144 74.1552 85.8536 72.6945" fill="#F1AD9C"/>
<path d="M86.1318 70.0713C85.9867 73.2485 83.9216 76.3017 80.9979 77.5357C80.6533 77.6809 80.4062 77.998 80.5137 78.3945C80.6034 78.7217 81.0189 79.0288 81.3657 78.8814C84.8877 77.395 87.3405 73.9308 87.5167 70.0713C87.5577 69.1734 86.1728 69.1745 86.1318 70.0713Z" fill="#221F1F"/>
<path d="M94.6791 62.0473C95.8025 64.5947 94.6636 67.5775 92.1365 68.7099C89.6093 69.8423 86.6502 68.6943 85.5268 66.147C84.4034 63.5996 85.5411 60.6168 88.0694 59.4844C90.5965 58.352 93.5556 59.5 94.6791 62.0473Z" fill="#F4B8BE"/>
<path d="M64.2025 24.8771C71.4448 33.675 83.4976 35.4662 94.1533 36.2346C100.575 36.6969 107.081 36.9839 113.332 38.6635C119.588 40.3442 124.869 43.6163 129.133 48.5301C133.259 53.2841 136.38 58.8199 140.021 63.938C143.606 68.9768 147.522 73.7833 151.814 78.2269C160.422 87.1375 170.622 94.6242 182.165 99.1593C195.542 104.414 210.627 105.669 224.387 101.157C225.231 100.88 224.87 99.5323 224.019 99.8115C211.622 103.877 198.17 103.17 185.884 99.0343C174.014 95.0385 163.462 87.8187 154.564 79.032C150.092 74.6153 146.008 69.8009 142.292 64.7241C138.719 59.8428 135.666 54.5873 131.96 49.8054C128.353 45.1485 124.04 41.2924 118.591 38.9885C113.045 36.6444 107.01 35.8482 101.061 35.3456C88.7102 34.3037 73.8456 34.4154 65.1819 23.8911C64.6124 23.1975 63.6375 24.1903 64.2025 24.8771Z" fill="#655F5F"/>
<path d="M55.7196 67.1833C56.1439 68.433 57.4656 69.1243 58.6699 68.73C59.872 68.3358 60.5046 67.0058 60.0791 65.7561C59.6537 64.5065 58.3331 63.813 57.131 64.2072C55.9256 64.6014 55.2942 65.9348 55.7196 67.1833Z" fill="#221F1F"/>
<path d="M77.4744 57.6853C77.8987 58.9349 79.2204 59.6262 80.4247 59.232C81.6267 58.8378 82.2593 57.5077 81.8339 56.2581C81.4085 55.0084 80.0879 54.3149 78.8858 54.7091C77.6815 55.1045 77.0489 56.4367 77.4744 57.6853Z" fill="#221F1F"/>
<path d="M113.296 42.9228C114.977 43.2735 107.208 26.4685 102.01 19.3838C96.8119 12.2991 89.7789 6.35013 81.4465 3.68443C73.114 1.01985 63.4343 1.98138 56.4668 7.30161C66.9165 8.29664 76.4764 14.02 84.0279 21.3683C91.5793 28.7165 98.5601 38.8846 104.299 47.7427C104.299 47.7427 110.31 42.2997 113.296 42.9228Z" fill="#EA7C87"/>
<path d="M102.698 166.416L136.767 101.344C136.767 101.344 167.32 102.981 174.773 109.328C182.226 115.674 183.711 131.107 183.711 131.107L166.708 182.215L101.191 166.835" fill="#EA7C87"/>
<path d="M76.5225 159.271C80.3779 156.796 85.7412 156.991 89.4106 159.738C90.4564 160.521 91.4746 162.512 91.2486 163.805C88.768 162.992 86.1368 161.739 83.5299 161.672C82.2857 161.64 81.0261 161.692 79.8107 161.422C78.5953 161.152 77.3955 160.501 76.795 159.402" fill="#F4B8BE"/>
<path d="M100.701 148.533C104.324 153.167 107.146 158.41 109.041 163.99C109.328 164.836 110.667 164.473 110.376 163.62C108.398 157.796 105.459 152.38 101.68 147.547C101.129 146.842 100.155 147.835 100.701 148.533Z" fill="#221F1F"/>
<path d="M102.355 167.486C102.355 167.486 135.254 99.8976 137.415 99.7234C139.577 99.548 145.241 100.243 144.45 101.954C143.659 103.663 112.441 163.806 112.441 163.806L101.191 166.836" fill="#F1AD9C"/>
<path d="M75.3679 115.187C80.7822 113.637 86.3194 112.577 91.9232 112.038C92.8028 111.953 92.8117 110.557 91.9232 110.642C86.1965 111.192 80.534 112.257 74.999 113.841C74.1437 114.086 74.5081 115.434 75.3679 115.187Z" fill="#F1AD9C"/>
<path d="M116.474 111.562C119.915 110.883 123.356 110.204 126.797 109.525C127.671 109.353 127.301 108.007 126.429 108.179C122.988 108.858 119.547 109.537 116.106 110.216C115.232 110.388 115.602 111.734 116.474 111.562Z" fill="#F1AD9C"/>
<path d="M77.7346 109.264C77.7346 109.264 59.5585 111.536 54.4356 119.067C49.3127 126.597 38.0011 161.02 35.0131 168.98C32.0251 176.94 22.8473 211.579 31.5986 218.463C40.3498 225.347 81.4903 229.348 82.5572 229.132C83.6241 228.916 86.3429 205.41 86.3429 205.41C86.3429 205.41 55.5025 195.656 49.9542 195.442L62.09 142.732L77.7346 109.264Z" fill="#F6CBC0"/>
<path d="M60.1064 155.271C60.1064 155.271 49.8828 138.715 45.1133 138.308C40.3438 137.902 39.6392 140.963 40.2153 143.949C40.7925 146.935 41.4528 149.646 41.4528 149.646C41.4528 149.646 30.8846 172.626 29.2283 183.607C27.572 194.59 20.6178 211.456 27.12 221.316C33.6222 231.176 75.2956 235.025 82.4659 234.343L87.8436 203.54L49.9515 195.441L60.1064 155.271Z" fill="#EA7C87"/>
<path d="M60.5785 155.698C58.1322 151.894 56.8205 149.732 53.6563 145.834C52.3845 144.268 51.0417 142.623 49.5826 141.231C48.1235 139.84 46.3542 138.068 44.3478 137.978C42.9519 137.915 41.0729 138.933 40.2974 140.104C39.3678 141.507 40.0148 143.582 40.6231 145.153C43.0438 151.411 48.3706 155.978 53.4968 160.27L59.2844 158.517L60.5785 155.698Z" fill="#F1AD9C"/>
<path d="M44.8896 195.272C71.9223 179.302 105.043 174.128 135.603 181.101C145.488 183.357 155.306 186.947 163.132 193.439C172.417 201.142 179.579 206.235 180.358 224.524L180.444 226.808C179.798 231.921 179.126 237.126 176.975 241.802C174.823 246.476 170.917 250.622 165.92 251.714C159.193 253.184 152.411 248.786 148.313 243.21C126.387 248.719 101.964 242.874 84.8348 228.019" fill="#5E0F17"/>
<path d="M51.7909 191.394C51.7909 191.394 39.5509 185.46 47.3117 168.051C55.0725 150.643 72.7612 156.557 74.7709 158.329C76.7817 160.099 78.8801 160.904 79.9248 161.367C80.9684 161.831 86.5123 160.664 90.2703 163.49C93.5397 165.949 95.155 171.678 94.8548 174.936C94.5545 178.195 93.6693 182.559 93.6693 182.559" fill="#F6CBC0"/>
<path d="M51.7909 191.394C51.7909 191.394 39.5509 185.46 47.3117 168.051C55.0725 150.643 72.7612 156.557 74.7709 158.329C76.7817 160.099 78.8801 160.904 79.9248 161.367C80.9684 161.831 86.5123 160.664 90.2703 163.49C93.5397 165.949 95.155 171.678 94.8548 174.936C94.5545 178.195 93.6693 182.559 93.6693 182.559" stroke="#F1AD9C" stroke-width="0.956078" stroke-miterlimit="10"/>
<path d="M72.3334 167.529C71.2432 168.136 70.5109 169.269 70.3248 170.503C70.1276 171.811 70.5186 173.061 71.3418 174.08C73.0912 176.245 76.4957 176.68 78.7182 175.005C79.9756 174.057 80.7478 172.57 80.7578 170.982C80.7634 170.083 79.3785 170.083 79.3729 170.982C79.3552 173.823 76.1689 175.442 73.7415 174.236C72.7067 173.722 71.806 172.747 71.6642 171.553C71.5324 170.436 72.0464 169.284 73.0314 168.736C73.8124 168.301 73.1145 167.095 72.3334 167.529Z" fill="#F1AD9C"/>
<path d="M79.413 160.414C79.4252 160.471 79.4352 160.526 79.4462 160.583C79.4573 160.659 79.4562 160.64 79.4396 160.526C79.4429 160.555 79.4462 160.583 79.4496 160.612C79.4606 160.727 79.4651 160.842 79.464 160.958C79.4628 161.059 79.454 161.159 79.4462 161.259C79.4374 161.335 79.4407 161.316 79.4551 161.202C79.4507 161.23 79.4462 161.259 79.4418 161.287C79.4318 161.344 79.4208 161.401 79.4086 161.457C79.3831 161.57 79.352 161.68 79.3144 161.79C79.3 161.831 79.2856 161.871 79.2701 161.911C79.2424 161.98 79.249 161.965 79.2911 161.864C79.28 161.891 79.2679 161.917 79.2557 161.944C79.2069 162.049 79.1538 162.15 79.0939 162.248C79.064 162.298 79.033 162.346 79.0009 162.394C78.9765 162.431 78.8513 162.592 78.982 162.426C78.8635 162.578 78.7793 162.719 78.7793 162.92C78.7793 163.091 78.8546 163.295 78.982 163.413C79.2313 163.643 79.7221 163.72 79.9614 163.413C80.3292 162.941 80.6106 162.418 80.7436 161.829C80.8776 161.237 80.8787 160.635 80.7491 160.043C80.6716 159.686 80.2406 159.443 79.8971 159.556C79.5238 159.677 79.3299 160.032 79.413 160.414Z" fill="#221F1F"/>
<path d="M48.9672 194.814C61.5784 188.222 75.5943 184.653 89.7975 184.405C90.6872 184.389 90.6905 182.993 89.7975 183.009C75.3473 183.261 61.0975 186.903 48.2681 193.609C47.476 194.022 48.1762 195.227 48.9672 194.814Z" fill="#221F1F"/>
<path d="M62.9285 199.173C79.9513 194.318 97.5868 191.921 115.276 192.056C116.167 192.062 116.168 190.667 115.276 190.66C97.4704 190.524 79.6943 192.941 62.5607 197.827C61.7043 198.072 62.0677 199.419 62.9285 199.173Z" fill="#221F1F"/>
<path d="M96.2461 196.836C96.512 199.292 97.0139 201.711 97.775 204.06C97.929 204.535 98.5627 204.773 98.9328 204.368C99.0037 204.29 99.0757 204.212 99.1466 204.132C99.7482 203.471 98.7721 202.482 98.1672 203.145C98.0952 203.223 98.0243 203.302 97.9523 203.381C98.3379 203.483 98.7234 203.586 99.11 203.689C98.3888 201.462 97.8825 199.166 97.6299 196.836C97.5889 196.462 97.3407 196.138 96.9375 196.138C96.5951 196.138 96.2051 196.46 96.2461 196.836Z" fill="#F1AD9C"/>
<path d="M133.544 206.488C132.192 208.239 130.841 209.99 129.49 211.741C129.261 212.038 129.203 212.438 129.49 212.728C129.729 212.969 130.238 213.027 130.469 212.728C131.821 210.977 133.173 209.226 134.523 207.475C134.753 207.178 134.811 206.778 134.523 206.488C134.284 206.246 133.774 206.188 133.544 206.488Z" fill="#F1AD9C"/>
<path d="M157.549 226.537C159.675 226.096 161.802 225.653 163.928 225.212C164.294 225.136 164.506 224.7 164.412 224.353C164.306 223.969 163.928 223.79 163.56 223.865C161.434 224.307 159.308 224.749 157.182 225.19C156.815 225.266 156.603 225.703 156.699 226.049C156.802 226.433 157.182 226.613 157.549 226.537Z" fill="#F1AD9C"/>
<path d="M174.196 224.854C174.06 226.28 173.923 227.706 173.786 229.132C173.752 229.496 174.13 229.846 174.479 229.83C174.884 229.812 175.134 229.523 175.171 229.132C175.307 227.706 175.445 226.28 175.581 224.854C175.617 224.49 175.238 224.14 174.889 224.156C174.484 224.174 174.234 224.463 174.196 224.854Z" fill="#F1AD9C"/>
<path d="M80.5225 200.623C82.0026 200.104 83.4827 199.586 84.9629 199.067C85.3041 198.947 85.5667 198.583 85.4459 198.208C85.3363 197.867 84.9607 197.591 84.594 197.72C83.1138 198.239 81.6337 198.757 80.1535 199.277C79.8123 199.396 79.5497 199.76 79.6705 200.135C79.7802 200.476 80.1569 200.752 80.5225 200.623Z" fill="#F1AD9C"/>
<path d="M65.8946 192.186C67.3371 193.122 68.9801 193.671 70.684 193.838C71.0452 193.874 71.392 193.492 71.3764 193.14C71.3587 192.731 71.0718 192.48 70.684 192.442C69.2803 192.304 67.8356 191.787 66.5936 190.98C66.289 190.783 65.8159 190.908 65.6464 191.23C65.4647 191.578 65.5689 191.974 65.8946 192.186Z" fill="#F1AD9C"/>
<path d="M80.0292 186.913C79.5595 188.268 79.0886 189.623 78.6177 190.978C78.4981 191.323 78.754 191.756 79.1019 191.837C79.4886 191.925 79.8254 191.718 79.9539 191.349C80.4247 189.994 80.8945 188.638 81.3653 187.284C81.485 186.939 81.229 186.505 80.8812 186.425C80.4945 186.337 80.1577 186.543 80.0292 186.913Z" fill="#F1AD9C"/>
<path d="M105.045 189.558C105.817 189.558 106.589 189.558 107.361 189.558C107.723 189.558 108.07 189.237 108.054 188.86C108.037 188.481 107.749 188.162 107.361 188.162C106.589 188.162 105.817 188.162 105.045 188.162C104.682 188.162 104.336 188.482 104.352 188.86C104.369 189.237 104.657 189.558 105.045 189.558Z" fill="#F1AD9C"/>
<path d="M60.2784 155.923C60.7969 150.507 64.8185 145.693 69.9902 144.186C70.8444 143.937 70.481 142.59 69.6224 142.84C63.8192 144.531 59.473 149.877 58.8935 155.923C58.8071 156.817 60.1931 156.811 60.2784 155.923Z" fill="#F1AD9C"/>
<path d="M61.0302 132.105C62.0705 136.432 63.4156 140.676 65.0552 144.81C65.3821 145.634 66.7226 145.275 66.3902 144.439C64.7505 140.305 63.4056 136.062 62.3653 131.734C62.1559 130.862 60.8197 131.232 61.0302 132.105Z" fill="#F1AD9C"/>
<path d="M138.951 173.032L138.952 173.033C138.951 173.023 138.951 173.02 138.951 173.032Z" fill="#EA7C87"/>
<path d="M224.208 178.067C222.254 170.441 198.901 135.986 191.623 125.094C185.345 115.701 171.841 106.935 171.22 107.395C157.936 117.25 166.488 150.204 166.488 150.204L188.951 175.336C188.951 175.336 138.996 173.813 138.952 173.034C138.984 173.678 139.851 210.814 139.851 210.814C166.118 218.932 192.656 213.282 202.812 214.003C217.316 215.033 229.283 197.87 224.208 178.067Z" fill="#EA7C87"/>
<path d="M142.36 176.095L138.166 175.336C138.166 175.336 117.185 162.698 114.765 162.52C111.355 162.268 102.142 164.997 102.142 164.997C102.142 164.997 95.6469 166.781 93.5851 167.913C92.4351 168.544 87.6058 172.349 86.4347 179.154C85.7412 183.183 89.0771 182.64 89.0771 182.64C89.0771 182.64 89.0771 186.568 92.1648 186.126C92.1648 186.126 91.6917 189.331 95.2081 189.554C98.6005 189.77 102.511 186.27 102.511 186.27L111.719 186.202C111.719 186.202 120.772 194.86 124.606 196.03C129.634 197.566 140.089 198.077 140.089 198.077" fill="#F6CBC0"/>
<path d="M142.36 176.095L138.166 175.336C138.166 175.336 117.185 162.698 114.765 162.52C111.355 162.268 102.142 164.997 102.142 164.997C102.142 164.997 95.6469 166.781 93.5851 167.913C92.4351 168.544 87.6058 172.349 86.4347 179.154C85.7412 183.183 89.0771 182.64 89.0771 182.64C89.0771 182.64 89.0771 186.568 92.1648 186.126C92.1648 186.126 91.6917 189.331 95.2081 189.554C98.6005 189.77 102.511 186.27 102.511 186.27L111.719 186.202C111.719 186.202 120.772 194.86 124.606 196.03C129.634 197.566 140.089 198.077 140.089 198.077" stroke="#F1AD9C" stroke-width="0.956078" stroke-miterlimit="10"/>
<path d="M92.2328 186.246C97.8509 179.28 107.403 176.232 115.84 179.444C116.674 179.762 117.035 178.413 116.208 178.098C107.359 174.73 97.1507 177.947 91.2534 185.26C90.6961 185.95 91.67 186.944 92.2328 186.246Z" fill="#F1AD9C"/>
<path d="M89.4429 182.827C92.822 173.63 103.613 170.547 112.417 170.249C113.306 170.219 113.31 168.823 112.417 168.853C102.917 169.175 91.724 172.613 88.1079 182.456C87.7977 183.299 89.1349 183.663 89.4429 182.827Z" fill="#F1AD9C"/>
<path d="M169.391 174.615C172.284 165.218 175.178 155.82 178.07 146.423C178.335 145.563 176.999 145.195 176.735 146.052C173.843 155.45 170.949 164.847 168.056 174.245C167.791 175.104 169.127 175.472 169.391 174.615Z" fill="#221F1F"/>
<path d="M207.161 185.966C205.097 177.801 197.126 172.535 188.864 173.988C187.489 174.23 186.632 174.6 185.294 174.574C183.808 174.545 182.32 174.516 180.832 174.487C170.841 174.29 160.849 174.094 150.858 173.898C148.055 173.844 145.253 173.788 142.45 173.733C142.057 173.725 141.784 174.06 141.757 174.431C140.998 185.064 140.24 195.696 139.48 206.33C139.373 207.825 139.266 209.321 139.159 210.815C139.095 211.712 140.481 211.707 140.544 210.815C141.303 200.182 142.063 189.55 142.822 178.916C142.928 177.421 143.036 175.925 143.142 174.431C142.912 174.663 142.68 174.897 142.45 175.129C149.308 175.264 156.166 175.398 163.023 175.533C168.017 175.632 173.009 175.73 178.002 175.828C180.766 175.883 183.624 176.154 186.386 175.993C187.205 175.945 187.975 175.589 188.785 175.422C191.338 174.892 194.025 175.089 196.49 175.933C201.154 177.531 204.62 181.572 205.826 186.34C206.045 187.208 207.381 186.839 207.161 185.966Z" fill="#221F1F"/>
<path d="M130.776 227.079C130.219 230.616 136.464 230.175 139.687 229.797C142.909 229.418 145.992 228.255 149.221 227.935C150.994 227.76 153.188 228.089 153.866 229.7C154.612 231.474 152.873 233.341 151.046 234.025C149.219 234.709 147.126 234.812 145.536 235.923C143.708 237.201 144.334 238.148 142.532 239.46C140.092 241.237 135.292 241.987 132.237 241.874C128.975 241.755 128.51 246.512 125.249 246.638C119.293 246.868 110.611 241.362 104.849 239.825C95.3157 237.281 85.8299 234.149 77.4287 229.047L84.5037 207.458C86.858 208.633 99.0659 211.989 101.339 210.701C103.612 209.413 105.45 207.525 107.512 205.938C113.123 201.619 120.54 199.588 127.672 200.419C128.452 200.51 129.312 200.682 129.772 201.305C130.436 202.204 129.878 203.461 129.17 204.318C127.604 206.215 125.32 207.534 122.855 207.964C121.674 208.171 120.435 208.185 119.335 208.649C118.235 209.112 117.285 210.219 117.54 211.366C117.757 212.341 118.722 212.959 119.604 213.47C122.688 215.255 127.709 217.169 131.259 217.619C137.226 218.378 142.787 214.105 148.732 215.021C150.275 215.259 150.57 216.974 150.834 218.475C151.097 219.959 149.77 221.215 148.506 222.07C141.819 226.589 133.196 228.308 125.183 226.719" fill="#F6CBC0"/>
<path d="M84.1542 208.062C86.4476 209.17 89.0511 209.775 91.5084 210.379C94.2582 211.055 97.3205 211.883 100.178 211.671C101.652 211.562 102.751 210.69 103.904 209.8C105.855 208.293 107.628 206.576 109.71 205.241C113.9 202.557 118.826 201.073 123.786 200.945C124.929 200.916 126.077 200.952 127.215 201.069C128.196 201.169 129.331 201.328 129.316 202.642C129.309 203.339 128.394 204.181 127.942 204.621C126.085 206.432 123.825 207.135 121.327 207.477C119.529 207.723 117.331 208.368 116.869 210.429C116.463 212.241 118.066 213.392 119.423 214.167C123.149 216.298 127.486 218.102 131.795 218.409C136.325 218.733 140.597 217 144.975 216.154C146.372 215.884 148.133 215.313 149.325 216.375C150.606 217.515 150.189 219.296 149.218 220.494C147.593 222.497 144.361 223.756 142.021 224.628C136.711 226.61 130.931 227.103 125.367 226.044C124.496 225.879 124.123 227.223 124.999 227.39C129.977 228.337 135.105 228.145 139.988 226.762C142.322 226.101 144.591 225.167 146.713 223.986C148.526 222.976 150.399 221.862 151.185 219.822C151.87 218.046 151.475 216.185 149.89 215.052C148.113 213.782 145.64 214.574 143.694 214.996C138.779 216.063 134.134 217.79 129.058 216.574C126.525 215.967 124.065 214.995 121.737 213.826C120.792 213.351 119.567 212.859 118.811 212.097C117.01 210.281 119.75 209.114 121.248 208.883C123.643 208.511 125.798 208.061 127.79 206.567C129.183 205.521 131.209 203.645 130.678 201.659C130.137 199.633 127.515 199.65 125.844 199.569C123.347 199.45 120.833 199.671 118.388 200.195C113.475 201.245 109.146 203.6 105.319 206.835C103.762 208.153 101.955 210.24 99.7833 210.291C98.0317 210.332 96.258 209.983 94.5496 209.635C91.3511 208.983 87.8169 208.287 84.8522 206.855C84.0534 206.47 83.3499 207.673 84.1542 208.062Z" fill="#F1AD9C"/>
<path d="M130.226 227.087C129.272 229.331 132.095 230.086 133.733 230.347C136.992 230.866 140.191 230.554 143.389 229.813C145.63 229.294 147.995 228.508 150.318 228.595C151.229 228.629 152.345 228.807 152.956 229.562C153.936 230.77 152.804 232.201 151.762 232.881C150.096 233.967 147.945 233.966 146.155 234.784C145.391 235.133 144.662 235.624 144.112 236.27C143.616 236.854 143.363 237.591 142.883 238.182C141.708 239.632 139.569 240.216 137.833 240.614C135.971 241.042 134.133 241.135 132.235 241.177C129.325 241.242 128.681 243.976 126.62 245.435C125.291 246.377 123.294 245.893 121.83 245.554C120.081 245.147 118.382 244.531 116.716 243.865C113.285 242.494 109.977 240.786 106.475 239.596C101.796 238.006 96.9679 236.926 92.3081 235.243C87.2672 233.423 82.3769 231.215 77.7758 228.445C77.0092 227.984 76.3112 229.19 77.0767 229.65C85.2475 234.568 94.3034 237.677 103.451 240.171C107.268 241.212 110.797 242.866 114.429 244.415C117.631 245.779 121.068 247.25 124.598 247.341C125.954 247.375 127.057 246.99 128.047 246.044C129.023 245.11 129.655 243.768 130.786 243.001C132.023 242.162 134.147 242.583 135.586 242.409C137.412 242.189 139.238 241.809 140.943 241.101C142.451 240.475 143.731 239.61 144.551 238.161C145.794 235.964 147.91 235.659 150.148 235.038C151.811 234.577 153.468 233.745 154.317 232.144C154.977 230.899 154.813 229.375 153.778 228.388C152.461 227.131 150.396 227.092 148.709 227.295C146.017 227.619 143.432 228.484 140.764 228.937C138.925 229.248 137.055 229.294 135.198 229.13C134.779 229.093 131.029 228.708 131.419 227.792C131.769 226.975 130.576 226.263 130.226 227.087Z" fill="#F1AD9C"/>
<path d="M147.678 234.055C140.992 236.069 133.938 236.576 127.04 235.487C126.168 235.35 125.793 236.695 126.673 236.833C133.822 237.962 141.111 237.491 148.046 235.4C148.898 235.145 148.536 233.797 147.678 234.055Z" fill="#F1AD9C"/>
<path d="M132.118 241.236C128.031 242.273 123.759 242.249 119.684 241.173C118.821 240.945 118.453 242.291 119.316 242.518C123.63 243.659 128.163 243.68 132.487 242.583C133.35 242.363 132.984 241.018 132.118 241.236Z" fill="#F1AD9C"/>
<path d="M82.4671 234.345L87.8449 206.981L43.1247 193.14L32.9941 213.742L83.5518 234.109" fill="#EA7C87"/>
</svg>
